<svg width="358" height="364" viewBox="0 0 358 364" fill="none" xmlns="http://www.w3.org/2000/svg">
<path opacity="0.4" d="M358 351.007C358 357.633 277.853 363.007 179 363.007C80.147 363.007 0 357.633 0 351.007C0 344.381 80.147 339.007 179 339.007C277.853 339.007 358 344.381 358 351.007Z" fill="#FF731D" fill-opacity="0.2"/>
<path d="M207.91 0C201.242 0 195.84 5.39981 195.84 12.0642V27.5296H219.987C219.987 27.5296 219.987 15.2474 219.987 12.0642C219.987 5.39981 214.585 0 207.917 0H207.91ZM207.91 18.9902C204.173 18.9902 201.133 15.9596 201.133 12.2168C201.133 8.47399 204.165 5.44341 207.91 5.44341C211.655 5.44341 214.687 8.47399 214.687 12.2168C214.687 15.9596 211.655 18.9902 207.91 18.9902Z" fill="#689DCA"/>
<path d="M214.687 12.2243C214.687 8.48879 211.655 5.45095 207.91 5.45095C207.561 5.45095 207.226 5.50182 206.892 5.55269C207.91 5.16024 207.961 4.89134 209.64 4.89134C213.378 4.89134 216.417 7.92192 216.417 11.6647C216.417 15.0587 214.687 16.8901 212.069 17.566C213.523 16.3232 214.687 14.281 214.687 12.2243ZM199.526 25.9891V10.5237C199.526 6.32305 201.351 2.63113 204.602 0.472656C199.548 1.91164 195.84 6.55561 195.84 12.0717V27.5371H219.987V25.9964H199.526V25.9891Z" fill="#1746A2"/>
<path d="M312.318 28.3438H98.9258C95.0145 28.3438 91.8438 31.513 91.8438 35.4224V342.855C91.8438 346.765 95.0145 349.934 98.9258 349.934H312.318C316.23 349.934 319.4 346.765 319.4 342.855V35.4224C319.4 31.513 316.23 28.3438 312.318 28.3438Z" fill="#1746A2"/>
<path d="M306.208 40.96H105.031V337.324H306.208V40.96Z" fill="#ACD0ED"/>
<path d="M298.481 50.0078H112.77V328.261H298.481V50.0078Z" fill="white"/>
<path d="M278.811 33.6711V45.7571H132.422V33.6711C132.422 32.7918 132.553 31.9415 132.807 31.142C133.883 27.6827 137.112 25.1826 140.907 25.1826H270.311C275.001 25.1826 278.804 28.9763 278.804 33.6711H278.811Z" fill="#689DCA"/>
<path d="M278.811 42.7338V45.7571H132.422V37.007C132.422 34.6595 132.553 32.7264 132.807 31.142C133.883 27.6827 137.112 25.1826 140.907 25.1826H141.947C139.708 27.3338 138.079 30.6188 138.079 33.9836V42.7338H278.804H278.811Z" fill="#1746A2"/>
<g opacity="0.15">
<path d="M164.27 79.5938H194.437" stroke="#689DCA" stroke-width="5" stroke-miterlimit="10"/>
<path d="M262.133 89.2012H285.066" stroke="#689DCA" stroke-width="5" stroke-miterlimit="10"/>
<path d="M164.27 89.2012H252.192" stroke="#689DCA" stroke-width="5" stroke-miterlimit="10"/>
<path d="M164.27 98.8164H285.065" stroke="#689DCA" stroke-width="5" stroke-miterlimit="10"/>
<path d="M246.672 108.432H285.063" stroke="#689DCA" stroke-width="5" stroke-miterlimit="10"/>
<path d="M164.27 108.432H237.112" stroke="#689DCA" stroke-width="5" stroke-miterlimit="10"/>
<path d="M204.332 79.5938H285.063" stroke="#689DCA" stroke-width="5" stroke-miterlimit="10"/>
</g>
<g opacity="0.15">
<path d="M164.27 148.694H194.437" stroke="#689DCA" stroke-width="5" stroke-miterlimit="10"/>
<path d="M262.133 158.31H285.066" stroke="#689DCA" stroke-width="5" stroke-miterlimit="10"/>
<path d="M164.27 158.31H252.192" stroke="#689DCA" stroke-width="5" stroke-miterlimit="10"/>
<path d="M164.27 167.917H285.065" stroke="#689DCA" stroke-width="5" stroke-miterlimit="10"/>
<path d="M246.672 177.532H285.063" stroke="#689DCA" stroke-width="5" stroke-miterlimit="10"/>
<path d="M164.27 177.532H237.112" stroke="#689DCA" stroke-width="5" stroke-miterlimit="10"/>
<path d="M204.332 148.694H285.063" stroke="#689DCA" stroke-width="5" stroke-miterlimit="10"/>
</g>
<g opacity="0.15">
<path d="M164.27 215.374H194.437" stroke="#689DCA" stroke-width="5" stroke-miterlimit="10"/>
<path d="M262.133 224.989H285.066" stroke="#689DCA" stroke-width="5" stroke-miterlimit="10"/>
<path d="M164.27 224.989H252.192" stroke="#689DCA" stroke-width="5" stroke-miterlimit="10"/>
<path d="M164.27 234.604H285.065" stroke="#689DCA" stroke-width="5" stroke-miterlimit="10"/>
<path d="M246.672 244.219H285.063" stroke="#689DCA" stroke-width="5" stroke-miterlimit="10"/>
<path d="M164.27 244.219H237.112" stroke="#689DCA" stroke-width="5" stroke-miterlimit="10"/>
<path d="M204.332 215.374H285.063" stroke="#689DCA" stroke-width="5" stroke-miterlimit="10"/>
</g>
<g opacity="0.15">
<path d="M164.27 283.268H194.437" stroke="#689DCA" stroke-width="5" stroke-miterlimit="10"/>
<path d="M262.133 292.883H285.066" stroke="#689DCA" stroke-width="5" stroke-miterlimit="10"/>
<path d="M164.27 292.883H252.192" stroke="#689DCA" stroke-width="5" stroke-miterlimit="10"/>
<path d="M164.27 302.498H285.065" stroke="#689DCA" stroke-width="5" stroke-miterlimit="10"/>
<path d="M246.672 312.105H285.063" stroke="#689DCA" stroke-width="5" stroke-miterlimit="10"/>
<path d="M164.27 312.105H237.112" stroke="#689DCA" stroke-width="5" stroke-miterlimit="10"/>
<path d="M204.332 283.268H285.063" stroke="#689DCA" stroke-width="5" stroke-miterlimit="10"/>
</g>
<path d="M152.555 76.6943H127.957C127.113 76.6943 126.43 77.3776 126.43 78.2205V102.807C126.43 103.65 127.113 104.333 127.957 104.333H152.555C153.398 104.333 154.082 103.65 154.082 102.807V78.2205C154.082 77.3776 153.398 76.6943 152.555 76.6943Z" stroke="#4583B8" stroke-width="2" stroke-miterlimit="10"/>
<path d="M152.555 145.569H127.957C127.113 145.569 126.43 146.253 126.43 147.096V171.682C126.43 172.525 127.113 173.208 127.957 173.208H152.555C153.398 173.208 154.082 172.525 154.082 171.682V147.096C154.082 146.253 153.398 145.569 152.555 145.569Z" stroke="#4583B8" stroke-width="2" stroke-miterlimit="10"/>
<path d="M152.555 214.444H127.957C127.113 214.444 126.43 215.128 126.43 215.971V240.557C126.43 241.4 127.113 242.083 127.957 242.083H152.555C153.398 242.083 154.082 241.4 154.082 240.557V215.971C154.082 215.128 153.398 214.444 152.555 214.444Z" stroke="#4583B8" stroke-width="2" stroke-miterlimit="10"/>
<path d="M152.555 283.326H127.957C127.113 283.326 126.43 284.009 126.43 284.852V309.439C126.43 310.281 127.113 310.965 127.957 310.965H152.555C153.398 310.965 154.082 310.281 154.082 309.439V284.852C154.082 284.009 153.398 283.326 152.555 283.326Z" stroke="#4583B8" stroke-width="2" stroke-miterlimit="10"/>
<path d="M52.9693 174.008C52.9693 174.008 53.4928 177.46 53.82 177.758C53.82 177.758 53.4928 178.332 52.5039 178.39" fill="#FFB392"/>
<path d="M63.1647 190.113L56.7879 218.1C56.6134 218.863 57.1296 219.612 57.9004 219.721L77.7432 222.57C78.434 222.671 79.0884 222.221 79.2411 221.538L85.6179 193.55C85.7924 192.787 85.2761 192.039 84.5054 191.93L64.6625 189.081C63.9718 188.979 63.3174 189.43 63.1647 190.113Z" fill="#57C6F2"/>
<path d="M64.4012 191.014L58.3008 217.809L78.0055 220.636L84.1059 193.841L64.4012 191.014Z" fill="#E5F8FF"/>
<path d="M82.0188 195.818L65.2734 193.412" stroke="#A1D2F0" stroke-width="0.57" stroke-linecap="round" stroke-linejoin="round"/>
<path d="M81.4563 198.347L64.7109 195.948" stroke="#A1D2F0" stroke-width="0.57" stroke-linecap="round" stroke-linejoin="round"/>
<path d="M74.4866 200.447L64.0234 198.942" stroke="#A1D2F0" stroke-width="0.57" stroke-linecap="round" stroke-linejoin="round"/>
<path d="M73.7444 202.627L63.2812 201.123" stroke="#A1D2F0" stroke-width="0.57" stroke-linecap="round" stroke-linejoin="round"/>
<path d="M72.9944 204.801L62.5312 203.304" stroke="#A1D2F0" stroke-width="0.57" stroke-linecap="round" stroke-linejoin="round"/>
<path d="M76.8342 216.835L66.3711 215.331" stroke="#A1D2F0" stroke-width="0.57" stroke-linecap="round" stroke-linejoin="round"/>
<path d="M55.5313 218.434C56.6584 217.904 57.4873 216.923 58.2871 215.978C59.0724 215.04 59.8649 214.103 60.6502 213.165C60.9629 212.795 61.2901 212.388 61.3191 211.908C59.9958 211.799 59.1451 213.514 57.8217 213.616C58.4398 211.443 59.3196 209.343 60.4466 207.38C60.7229 206.901 61.021 206.341 60.8247 205.825C59.3996 206.37 58.1926 207.388 57.1528 208.507C56.4184 209.292 55.7567 210.142 55.1605 211.036C53.4154 213.674 52.332 216.705 51.5977 219.779" fill="#F2A181"/>
<path d="M49.8361 240.978L35.6647 229.03C35.6647 229.03 29.0698 237.969 31.5565 246.589C32.778 250.833 34.3122 252.933 34.9739 254.946C35.5992 256.829 39.8601 283.435 39.5402 285.383C39.2202 287.331 36.9299 292.774 36.0573 298.494C35.003 305.376 35.1848 327.811 34.3704 333.756C33.5561 339.701 39.053 340.711 39.3511 338.698C41.9324 321.503 48.7527 294.7 49.7125 286.103C50.665 277.505 50.2796 261.763 49.8288 240.978H49.8361Z" fill="#FFBE9D"/>
<path d="M49.8774 257.926L43.7188 272.062C46.3145 276.451 47.8197 281.626 48.016 286.873C48.1178 289.598 47.8778 292.331 47.9578 295.056C47.9578 295.252 47.9942 295.456 48.0378 295.652C48.8667 291.611 49.4775 288.276 49.7174 286.11C50.3936 280.034 50.3936 270.383 50.1828 257.919C50.081 257.919 49.9792 257.919 49.8774 257.933V257.926Z" fill="#F2A181"/>
<path d="M40.3189 333.175C40.3189 333.175 39.0029 339.418 39.3519 340.21C39.7082 341.002 40.9806 343.32 42.2894 344.149C43.6637 345.028 46.6957 346.068 46.9429 346.445C47.1829 346.823 47.2047 347.383 46.7684 347.717C45.6487 348.597 43.7073 349.025 42.4348 348.815C38.3194 348.132 37.8904 346.315 35.4909 346.024C35.0765 345.973 34.3057 346.584 33.1642 346.002C32.0153 345.414 31.4627 344.36 31.5573 343.364C31.7245 341.642 32.6916 340.232 33.3823 338.96C34.0731 337.688 34.5529 331.874 34.5529 331.874" fill="#FFBE9D"/>
<path d="M47.087 348.03C47.3851 347.514 47.4651 346.736 47.1816 346.547C46.7962 346.286 45.4147 345.37 44.6149 345.007C43.815 344.636 42.5499 344.316 42.9934 344.556C43.4369 344.796 42.6153 345.697 41.8736 345.654C39.2924 345.494 37.3874 343.778 35.9186 343.415C33.7954 342.885 32.9084 340.377 32.8138 339.978C32.4139 340.232 31.476 342.252 31.2869 342.885C31.1124 343.459 30.807 344.505 30.9742 345.101C31.0906 345.515 31.3378 346.344 31.2069 347.216C31.2069 347.216 31.6214 347.536 32.7339 347.768C33.4319 347.914 34.3771 347.79 34.3771 347.79L34.5589 346.46C34.5589 346.46 35.1333 346.438 35.875 346.591C36.6094 346.744 37.8091 347.441 37.8818 347.529C38.1799 347.877 38.4126 348.524 38.8052 348.72C39.8377 349.236 40.8775 349.491 42.1936 349.563C44.9639 349.723 46.5781 348.924 47.087 348.045V348.03Z" fill="#1B227A"/>
<path d="M69.1873 347.768C68.8819 347.434 65.6026 346.896 64.0611 346.257C62.5924 345.646 60.8182 343.677 60.4692 342.841C60.1202 342.005 60.2002 337.768 60.2438 335.995C60.5492 323.749 62.8178 293.821 63.145 286.655C63.7121 274.199 62.0979 261.342 57.299 241.349L39.4411 227.657C39.4411 227.657 34.4386 236.945 36.1182 245.833C37.0926 250.986 41.368 251.778 42.0878 253.784C42.8077 255.79 53.6125 288.08 53.6125 288.08C53.6125 288.08 51.5112 295.064 51.3876 302.709C51.2858 309.236 54.2451 328.938 54.7977 336.438C54.8632 337.906 55.1177 341.417 54.6814 342.528C54.1506 343.895 52.7982 345.508 52.8709 347.231C52.9072 348.234 53.6343 349.186 54.8995 349.578C56.1647 349.97 56.87 349.236 57.3063 349.222C59.8221 349.12 60.5201 350.85 64.8682 350.85C66.2061 350.85 68.1548 350.109 69.18 349.055C69.5799 348.648 69.4854 348.103 69.18 347.768H69.1873Z" fill="#FFBE9D"/>
<path d="M69.5592 349.302C69.7992 348.742 69.7628 347.964 69.4502 347.819C69.0139 347.623 67.4652 346.947 66.5854 346.714C65.7056 346.482 64.3531 346.366 64.8476 346.533C65.342 346.7 64.6222 347.725 63.8442 347.797C61.1611 348.066 58.9507 346.678 57.3801 346.555C55.1116 346.38 54.2826 344.047 54.1299 343.662C53.7519 343.982 52.6321 346.126 52.5303 346.787C52.4358 347.383 52.2685 348.466 52.5158 349.033C52.6903 349.425 53.0684 350.203 53.0611 351.082C53.0611 351.082 53.541 351.329 54.7116 351.373C55.4533 351.402 56.4131 351.126 56.4131 351.126V349.781C56.4131 349.781 57.0093 349.665 57.7873 349.694C58.5653 349.723 59.5324 350.123 59.9977 350.479C60.3686 350.755 60.7539 351.228 61.1902 351.337C62.4481 351.649 63.3497 351.744 64.7167 351.606C67.596 351.315 69.1521 350.254 69.552 349.302H69.5592Z" fill="#1B227A"/>
<path d="M36.0425 227.527C34.8283 228.857 30.5092 236.051 30.4656 241.902C30.422 247.752 32.2834 251.56 32.6906 252.731C33.7958 255.928 35.8535 258.792 35.8535 259.373C35.8535 259.954 39.0746 260.361 45.9022 259.933C58.5248 259.141 63.1565 256.771 63.1565 256.771C63.1565 256.771 63.571 251.524 62.2767 240.143C61.6587 234.736 57.0561 226.175 57.0561 226.175" fill="#002F4C"/>
<path d="M24.5352 204.14C24.5352 204.14 26.5711 214.234 27.1019 216.029C27.6326 217.824 30.2721 229.227 32.7733 229.031C35.2746 228.835 48.9588 217.41 48.9588 217.41L47.0174 213.537L34.9692 219.278C34.9692 219.278 33.8785 206.24 32.926 203.137" fill="#FFBE9D"/>
<path d="M29.1875 210.353C30.4599 214.858 33.0775 219.611 33.8556 223.1C34.0155 223.805 42.3555 220.767 42.3773 217.635" fill="#F2A181"/>
<path d="M32.6907 190.149C32.6907 190.149 28.6989 190.578 26.6702 192.126C21.5078 196.08 25.4996 210.419 25.4996 210.419C25.4996 210.419 25.2451 211.182 28.7134 210.993C32.1817 210.797 34.9593 209.815 34.9593 209.815L33.9559 198.064" fill="#1746A2"/>
<path d="M28.1163 198.267C28.1163 198.267 27.68 206.697 29.2069 210.949C30.7193 210.919 32.0354 210.578 32.0354 210.578L28.1163 198.267Z" fill="#003A66"/>
<path d="M51.7857 163.688C54.1924 166.806 53.7198 171.195 53.1235 175.091C52.8254 177.06 52.52 179.03 52.2219 180.999C52.0765 181.937 51.8875 182.954 51.1603 183.557C50.426 184.168 49.3716 184.153 48.4191 184.117C48.4264 185.745 48.4409 187.38 48.4482 189.008C45.6561 189.074 42.864 189.088 40.0792 189.044C40.0792 187.903 39.8319 186.762 39.3521 185.723C37.9851 185.694 37.0762 184.328 36.5381 183.07C35.9201 181.624 35.4766 180.113 35.0403 178.594C34.4659 176.588 33.9133 174.546 33.8551 172.46C33.8042 170.374 34.2986 168.201 35.6292 166.588C36.5309 165.49 37.767 164.705 39.0321 164.051C40.7626 163.15 42.8422 162.438 44.6236 163.23" fill="#FFBE9D"/>
<path d="M48.8979 178.55C48.5707 176.915 48.5926 175.985 49.1306 174.894C49.3051 174.531 49.5451 174.19 49.865 173.964C50.3013 173.659 50.8757 173.601 51.3556 173.812C51.6682 173.95 51.93 174.204 52.1045 174.509C52.6717 172.307 52.7953 169.96 52.628 167.678C52.3663 164.051 50.1849 161.253 46.9929 159.938C41.0815 157.51 32.5888 159.909 30.1894 165.708C28.3789 170.091 29.295 176.406 32.7634 180.084C35.839 183.332 40.2526 183.812 44.3317 183.143C46.4185 182.802 49.6396 183.005 50.7157 180.171C50.7957 179.953 50.6139 179.735 50.3885 179.749C49.5451 179.815 48.9561 178.855 48.8907 178.55H48.8979Z" fill="#012030"/>
<path d="M49.356 170.839C49.5742 171.181 49.5233 171.646 49.7269 171.995C50.0759 172.583 50.5339 172.802 51.152 173.085C52.1554 173.55 51.9227 175.011 51.8936 175.665C52.6498 175.163 52.7735 173.79 52.9552 173.099C53.1588 172.322 53.2897 171.515 53.5224 170.745C53.7405 169.989 54.1259 169.284 54.1986 168.492C54.4458 165.752 52.7225 162.532 50.643 160.999C49.1306 159.88 46.8184 159.923 45.1097 161.064C44.3899 161.544 43.8518 162.271 43.5319 163.07C43.3937 163.412 43.2992 163.819 43.4737 164.146" fill="#012030"/>
<path d="M35.9258 190.185C36.0712 189.233 36.3257 188.114 37.2128 187.743C37.46 187.641 37.729 187.605 37.998 187.576C40.7174 187.278 43.4586 187.147 46.1999 187.191C47.3341 187.205 48.5048 187.263 49.5155 187.772C51.1079 188.564 51.9804 190.28 52.7439 191.878" fill="#003A66"/>
<path d="M58.9857 225.178C58.6076 224.619 57.7278 223.943 57.4079 223.325C56.6517 221.843 55.99 215.585 56.2518 213.986C56.5281 212.271 58.0477 211.348 58.7312 207.54C59.611 202.627 57.5969 198.812 56.4699 197.176C54.8776 194.865 55.8228 194.88 55.2775 192.046C55.1757 191.537 55.0666 190.992 54.7176 190.636C54.3758 190.287 51.9982 189.204 51.5328 189.131C47.1047 188.448 44.5017 188.979 40.0299 189.175C37.8195 189.269 35.6091 189.531 33.435 190.011C31.0283 190.541 28.9342 191.181 28.4398 194.444C27.6763 199.488 28.3162 204.589 29.8504 209.379C30.8683 212.547 36.9397 223.521 35.4346 225.651C35.0929 226.138 34.2276 227.061 34.1258 227.664C33.7477 229.881 38.7575 230.665 40.9025 230.84C44.1745 231.109 47.9264 230.927 51.1984 230.774C53.6778 230.658 59.1093 229.793 59.4947 226.726C59.5674 226.123 59.2693 225.636 58.9712 225.2L58.9857 225.178Z" fill="#1746A2"/>
<path d="M58.0377 208.485C58.0377 209.379 57.536 210.571 57.376 211.043C56.7507 211.363 54.2858 211.894 52.8679 211.247C52.5553 208.296 50.832 202.62 50.832 202.62C50.832 202.62 58.0377 207.657 58.0377 208.478V208.485Z" fill="#003A66"/>
<path d="M54.8672 206.429C54.8672 206.429 63.0399 226.175 66.5882 226.175C69.1695 226.175 75.4953 207.941 75.4953 207.941L71.4962 206.051L67.039 213.689L62.5237 199.452" fill="#FFBE9D"/>
<path d="M70.7031 207.417C70.7031 207.417 72.0265 205.331 71.9319 203.848C71.8956 203.282 71.5611 200.6 71.8374 200.069C72.121 199.539 72.7899 197.816 73.1753 197.475C73.5607 197.14 74.9785 196.595 75.3276 196.843C75.6766 197.082 76.1056 195.978 76.68 196.072C77.2544 196.167 77.7343 196.646 77.7343 197.177C77.7343 197.707 78.505 197.802 78.5996 198.187C78.6941 198.572 78.6504 198.906 78.7886 199.197C78.934 199.488 79.3558 199.343 79.5085 200.062C79.6466 200.716 79.4576 200.782 79.5085 201.116C79.5593 201.45 79.8429 201.421 79.7484 202.061C79.6539 202.7 79.2176 203.529 78.8322 204.248C78.4469 204.968 77.6543 205.869 76.6 206.508C76.0838 206.821 75.7929 207.373 75.2985 208.303" fill="#FFBE9D"/>
<path d="M72.8982 192.155C72.7964 191.995 72.5201 191.734 72.1929 191.966C71.8657 192.199 71.9675 192.591 72.0329 192.751C72.1056 192.911 74.4469 198.216 74.4469 198.216C74.4469 198.216 74.6433 198.442 75.0141 198.115C75.4213 197.759 75.2904 197.577 75.2904 197.577C75.2904 197.577 72.9927 192.315 72.8909 192.155H72.8982Z" fill="#1B227A"/>
<path d="M75.4521 197.228C74.994 198.049 74.4559 198.311 73.976 198.761C73.5979 199.118 73.6488 199.343 73.2344 199.706C73.9615 199.655 73.8379 199.219 74.7758 198.543C75.2121 198.231 75.6629 197.889 75.7502 197.352C75.7793 197.17 75.5611 197.068 75.4521 197.228Z" fill="#F2A181"/>
<path d="M47.3516 188.819C49.482 188.928 55.677 187.845 59.1235 191.442C62.0101 194.459 63.6607 202.373 64.824 205.578C61.9301 208.521 59.1453 210.898 54.7681 209.946C54.6009 209.822 52.4268 202.983 50.849 202.38" fill="#1746A2"/>
<path d="M63.1719 251.531C63.1719 251.531 64.5752 285.318 64.3207 287.782C64.0662 290.246 61.325 336.896 61.325 336.896C61.325 336.896 55.6899 337.885 52.3234 336.896C52.3234 336.896 47.9753 300.566 52.3234 289.25L50.3893 278.4C50.3893 278.4 50.6801 286.467 50.3893 288.109C50.0985 289.752 41.3949 335.741 41.3949 335.741C41.3949 335.741 35.6362 335.588 33.0041 333.284C33.0041 333.284 32.1824 301.329 38.1811 287.891L32.6914 252.731L35.8543 243.784L63.1719 251.531Z" fill="#002F4C"/>
<path d="M50.3825 278.399C49.5754 273.203 44.6165 254.772 44.4057 254.329C41.6936 252.229 39.2141 250.376 38.3125 248.624C39.7958 253.072 42.6461 253.297 43.7149 255.601C46.3543 261.277 44.3402 260.027 50.4989 279.053" fill="#170D54"/>
<path d="M26.1608 188.594C26.0299 190.389 26.4007 192.184 26.4298 193.987C26.4589 195.789 26.0735 197.729 24.7502 198.958C23.4269 200.179 20.9692 200.229 20.0312 198.689C20.9838 200.673 23.0342 202.01 25.201 202.41C27.3678 202.802 29.6291 202.337 31.6359 201.421C36.9584 198.979 40.5067 193.405 40.3467 187.533C40.2086 182.707 36.5439 178.049 31.4251 180.585C28.4221 182.075 26.4007 185.28 26.1681 188.594H26.1608Z" fill="#012030"/>
</svg>
